<?xml version="1.0" encoding="utf-8"?>
<!-- Generator: Adobe Illustrator 24.1.1, SVG Export Plug-In . SVG Version: 6.00 Build 0)  -->
<svg version="1.1" id="Слой_1" xmlns="http://www.w3.org/2000/svg" xmlns:xlink="http://www.w3.org/1999/xlink" x="0px" y="0px"
	 viewBox="0 0 960 560" style="enable-background:new 0 0 960 560;" xml:space="preserve">
<style type="text/css">
	.st0{fill:#005BC3;}
	.st1{fill:#000CA5;}
	.st2{fill:#FF4C2B;}
	.st3{fill:#FFFFFF;}
	.st4{fill:#FF4F2F;}
	.st5{fill:#361D00;}
</style>
<path class="st0" d="M275,182.24c-53.43-4.33-100.72-2.95-137,9.13L156,283l-18,95.95c37.55-8.96,84.66-8.67,137-3.54V182.24z"/>
<path class="st1" d="M689,229.58v192.68c50.62,2.4,96.26-0.77,133-13.53L801,316l21-94.53C784.31,231.42,738.79,232.91,689,229.58z"
	/>
<polygon points="246,345 275,323.36 275,375 "/>
<polygon points="689,423 712,408 688,226.15 "/>
<path class="st2" d="M246,345.25c140.14,9.37,326.29,61.78,466,62.73V215.87c-142.99-4.48-329.21-57.15-466-63.29V345.25z"/>
<g>
	<g>
		<path class="st3" d="M288.5,186.86c10.74,0.92,16.22,1.48,27.35,2.76c0.02,7.27,0.04,10.9,0.06,18.17
			c-4.08-0.48-6.1-0.7-10.13-1.13c0.08,36.95,0.16,73.9,0.24,110.85c-3.02-0.36-4.53-0.54-7.53-0.87
			c-0.05-36.92-0.1-73.83-0.14-110.75c-3.96-0.39-5.93-0.58-9.85-0.92C288.5,197.72,288.5,194.1,288.5,186.86z"/>
		<path class="st3" d="M319.12,190c3.03,0.36,4.55,0.54,7.6,0.92c0.08,17.87,0.16,35.75,0.24,53.62c5.46,0.71,8.2,1.08,13.73,1.86
			c-0.1-17.9-0.21-35.8-0.31-53.69c3.09,0.42,4.64,0.64,7.76,1.08c0.28,43.19,0.56,86.39,0.84,129.58
			c-3.15-0.48-4.72-0.71-7.85-1.17c-0.11-19.23-0.22-38.45-0.34-57.68c-5.54-0.78-8.29-1.16-13.75-1.88
			c0.09,19.2,0.17,38.4,0.26,57.6c-3.09-0.42-4.63-0.63-7.7-1.03C319.44,276.13,319.28,233.06,319.12,190z"/>
		<path class="st3" d="M357.2,195.09c10.86,1.6,16.35,2.46,27.43,4.26c0.06,6.89,0.09,10.34,0.16,17.23
			c-7.89-1.29-11.8-1.91-19.58-3.1c0.1,12.36,0.19,24.72,0.29,37.07c6.12,0.95,9.19,1.44,15.37,2.45
			c0.06,6.93,0.09,10.39,0.15,17.32c-6.19-1.01-9.27-1.51-15.39-2.47c0.11,13.53,0.21,27.06,0.32,40.59
			c7.96,1.27,11.97,1.93,20.02,3.28c0.06,7.04,0.1,10.57,0.16,17.61c-9.32-1.58-18.65-3.11-27.99-4.56
			C357.82,281.54,357.51,238.31,357.2,195.09z"/>
		<path class="st3" d="M403.65,202.5c2.98,0.51,4.47,0.76,7.46,1.28c0.15,14.96,0.31,29.93,0.46,44.89
			c2.04-8.14,4.81-11.91,8.32-11.3c3.79,0.67,6.89,5.51,9.14,14.42c2.87,11.39,3.69,23.48,3.69,35.17
			c0,11.24,1.35,50.49-12.97,50.21c-3.63-0.07-7.23-6.3-8.99-16.63c-0.52,3.52-1.03,7.78-1.53,12.76c-1.71-0.3-2.57-0.45-4.28-0.75
			C404.52,289.21,404.09,245.86,403.65,202.5z M412.03,293.13c0.41,9.55-0.02,25.56,6.68,28.83c1.46,0.71,3.79-2.11,4.74-7.52
			c0.95-5.41,1.35-14.68,1.21-27.82c-0.14-12.63-0.73-21.53-1.79-26.7c-1.06-5.16-2.65-7.93-4.75-8.3
			c-1.84-0.32-3.37,1.63-4.58,5.85c-1.21,4.22-1.77,10.11-1.7,17.66C411.92,282.33,411.96,285.93,412.03,293.13z"/>
		<path class="st3" d="M466.7,298.59c-8.37-1.54-12.55-2.3-20.88-3.82c0.15,13,0.92,21.8,2.31,26.39c1.4,4.59,3.12,7.07,5.16,7.45
			c3.4,0.62,5.49-4.96,6.25-16.76c2.81,1.47,4.21,2.2,7.02,3.67c-0.97,7.32-1.81,29.49-13.34,28.12c-4.22-0.5-8.15-5.68-10.81-14.45
			c-3.65-12.05-4.24-25.03-4.38-37.35c-0.14-12.37,0.06-25.5,3.58-37.63c2.47-8.49,6.09-12.42,10.57-11.6
			c3.14,0.57,5.81,3.31,8.01,8.22c2.2,4.91,3.78,11.12,4.74,18.63C466.17,279.04,466.62,288.93,466.7,298.59z M458.75,283.7
			c-0.42-8.93-0.08-23.58-6.65-26.64c-2.73-1.27-6.05,7.37-6.25,24.29C451,282.28,453.58,282.75,458.75,283.7z"/>
		<path class="st3" d="M491.35,218.26c3.06,0.56,4.59,0.84,7.65,1.4c0.49,43.42,0.98,86.83,1.47,130.25
			c-2.82-0.51-4.23-0.77-7.05-1.28c-0.07-5.84-0.1-8.76-0.17-14.6c-1.66,10.55-4.66,15.43-9,14.64c-4.17-0.76-7.39-5.91-9.54-15.37
			c-2.69-11.84-3.39-24.25-3.53-36.36c-0.15-12.06,0.07-24.69,3.03-36.4c2.12-8.37,5.22-12.28,9.05-11.58
			c4.03,0.74,6.89,5.52,8.6,14.34C491.69,248.28,491.52,233.27,491.35,218.26z M492.19,291.8c-0.11-9.91-0.91-16.98-2.39-21.22
			c-1.48-4.23-3.57-6.96-4.52-6.77c-6.49,1.28-5.91,23.57-5.96,32.76c-0.06,9.85-0.79,33.87,6.84,37.4
			c1.15,0.53,3.13-1.42,4.44-5.18c1.3-3.76,1.9-10.59,1.79-20.5C492.3,301.69,492.26,298.39,492.19,291.8z"/>
		<path class="st3" d="M552.44,258.26c-2.8,2.07-4.2,3.1-7,5.16c-0.9-7.04-2.04-12.32-3.43-15.85c-1.39-3.53-3.26-5.5-5.61-5.91
			c-2.18-0.39-3.84,0.99-4.99,4.12c-1.15,3.14-1.7,6.87-1.66,11.21c0.05,4.78,0.76,8.71,2.12,11.78c1.36,3.07,4.06,6.94,8.08,11.57
			c3.43,3.96,6.07,7.62,7.93,10.99s3.38,7.7,4.56,13.01c1.18,5.31,1.8,11.33,1.87,18.06c0.11,10.92-1.28,19.98-4.16,27.16
			c-2.88,7.18-7.23,10.49-12.31,9.39c-14.41-3.1-15.95-27.58-17.53-39.45c2.94-1.64,4.41-2.47,7.35-4.12
			c0.53,9.15,2.55,23.03,10.36,25.8c2.11,0.75,4.65-0.98,5.99-4.34c1.34-3.35,1.98-7.66,1.93-12.94c-0.04-3.87-0.55-7.55-1.53-11.02
			c-0.98-3.47-3.38-7.42-7.21-11.82c-4.03-4.64-6.97-8.49-8.77-11.54c-1.8-3.05-3.36-7.36-4.66-12.92c-1.31-5.56-2-11.75-2.07-18.55
			c-0.11-10.36,1.18-18.82,3.89-25.38c2.71-6.56,6.72-9.65,10.96-8.6C548.85,227.11,550.75,247.4,552.44,258.26z"/>
		<path class="st3" d="M560.72,230.68c3.3,0.57,4.95,0.85,8.25,1.4c0.16,17.96,0.32,35.91,0.48,53.87
			c5.85,0.97,8.76,1.44,14.58,2.37c-0.14-17.94-0.29-35.88-0.43-53.82c3.28,0.53,4.92,0.8,8.19,1.32
			c0.32,43.24,0.65,86.49,0.97,129.73c-3.24-0.49-4.86-0.74-8.12-1.24c-0.16-19.27-0.31-38.54-0.47-57.82
			c-5.81-0.92-8.72-1.39-14.56-2.36c0.17,19.29,0.34,38.58,0.52,57.87c-3.27-0.53-4.91-0.8-8.19-1.34
			C561.53,317.33,561.13,274.01,560.72,230.68z"/>
		<path class="st3" d="M634.93,306.7c0.07,16.33-0.15,33.55-4.18,49.55c-2.73,10.85-7.09,16.05-12.7,15.3
			c-5.63-0.76-10-7.03-13.1-18.75c-4.36-16.51-4.77-34.25-4.88-50.96c-0.11-16.13-0.12-33.46,4.18-49.41
			c2.94-10.9,7.29-15.92,13.01-15.09c5.65,0.82,10.1,7.13,13,18.73C634.37,272.46,634.86,289.97,634.93,306.7z M626.57,305.65
			c-0.06-12.16-0.38-24.53-2.18-36.56c-1.34-8.98-3.75-13.75-7.1-14.23s-5.72,3.63-6.96,12.27c-1.7,11.84-1.85,24.04-1.78,36
			c0.08,12.11,0.45,24.4,2.19,36.39c1.33,9.15,3.77,14.01,7.21,14.48c3.23,0.44,5.53-3.64,6.78-12.13
			C626.49,329.97,626.63,317.68,626.57,305.65z"/>
		<path class="st3" d="M642.28,243.11c4.76,0.61,7.12,0.9,11.84,1.46c3.77,0.44,6.81,1.75,9.14,3.92c2.33,2.18,4.29,6.63,5.87,13.36
			c1.58,6.73,2.37,14.71,2.37,23.96c0,8.49-0.64,15.72-1.91,21.69c-1.27,5.98-2.99,10.21-5.14,12.7c-2.16,2.49-5.48,3.5-9.99,3.01
			c-1.62-0.18-2.43-0.27-4.05-0.45c0.04,16.8,0.08,33.59,0.12,50.39c-3.12-0.34-4.68-0.51-7.82-0.88
			C642.56,329.21,642.42,286.16,642.28,243.11z M650.25,260.64c0.04,15,0.07,30,0.11,45c1.56,0.18,2.33,0.27,3.88,0.44
			c3.46,0.39,5.84-1.12,7.16-4.51c1.32-3.39,1.97-9.04,1.96-16.97c-0.01-5.91-0.45-10.76-1.33-14.54c-0.88-3.78-1.85-6.15-2.9-7.12
			c-1.05-0.97-2.71-1.58-4.99-1.84C652.6,260.92,651.82,260.83,650.25,260.64z"/>
	</g>
</g>
<rect x="426" y="298" class="st4" width="3" height="3"/>
<polygon class="st5" points="246,153 213,180 246,340.85 "/>
</svg>
